<mxfile host="Electron" agent="Mozilla/5.0 (Windows NT 10.0; Win64; x64) AppleWebKit/537.36 (KHTML, like Gecko) draw.io/24.7.17 Chrome/128.0.6613.36 Electron/32.0.1 Safari/537.36" version="24.7.17">
  <diagram name="PÃ¡gina-1" id="v9eyK5K0ine9Uah6KLdY">
    <mxGraphModel dx="880" dy="532" grid="1" gridSize="10" guides="1" tooltips="1" connect="1" arrows="1" fold="1" page="1" pageScale="1" pageWidth="827" pageHeight="1169" math="0" shadow="0">
      <root>
        <mxCell id="0" />
        <mxCell id="1" parent="0" />
        <mxCell id="m3NEK78cNjrLtAHkQ2Yu-1" value="" style="ellipse;whiteSpace=wrap;html=1;aspect=fixed;" vertex="1" parent="1">
          <mxGeometry x="280" y="20" width="50" height="50" as="geometry" />
        </mxCell>
        <mxCell id="m3NEK78cNjrLtAHkQ2Yu-2" value="" style="endArrow=none;html=1;rounded=0;" edge="1" parent="1">
          <mxGeometry width="50" height="50" relative="1" as="geometry">
            <mxPoint x="304.76" y="120" as="sourcePoint" />
            <mxPoint x="304.76" y="70" as="targetPoint" />
          </mxGeometry>
        </mxCell>
        <mxCell id="m3NEK78cNjrLtAHkQ2Yu-3" value="Se presiona&amp;nbsp;&lt;div&gt;&quot;Realizar Ruta&quot;&lt;/div&gt;&lt;div&gt;// Habilitar Espacio&amp;nbsp;&lt;/div&gt;&lt;div&gt;de Carga, Habilitar&amp;nbsp;&lt;/div&gt;&lt;div&gt;Boton de Confirmar&lt;/div&gt;" style="text;html=1;align=center;verticalAlign=middle;resizable=0;points=[];autosize=1;strokeColor=none;fillColor=none;" vertex="1" parent="1">
          <mxGeometry x="320" y="10" width="130" height="90" as="geometry" />
        </mxCell>
        <mxCell id="m3NEK78cNjrLtAHkQ2Yu-8" value="" style="edgeStyle=orthogonalEdgeStyle;rounded=0;orthogonalLoop=1;jettySize=auto;html=1;" edge="1" parent="1" source="m3NEK78cNjrLtAHkQ2Yu-4" target="m3NEK78cNjrLtAHkQ2Yu-5">
          <mxGeometry relative="1" as="geometry" />
        </mxCell>
        <mxCell id="m3NEK78cNjrLtAHkQ2Yu-4" value="Esperando&amp;nbsp;&lt;div&gt;Carga&lt;/div&gt;" style="rounded=1;whiteSpace=wrap;html=1;" vertex="1" parent="1">
          <mxGeometry x="250" y="120" width="120" height="60" as="geometry" />
        </mxCell>
        <mxCell id="m3NEK78cNjrLtAHkQ2Yu-17" value="" style="rounded=0;orthogonalLoop=1;jettySize=auto;html=1;entryX=0;entryY=0.75;entryDx=0;entryDy=0;exitX=1;exitY=0.75;exitDx=0;exitDy=0;" edge="1" parent="1" source="m3NEK78cNjrLtAHkQ2Yu-5" target="m3NEK78cNjrLtAHkQ2Yu-11">
          <mxGeometry relative="1" as="geometry">
            <mxPoint x="330" y="330" as="sourcePoint" />
            <mxPoint x="330" y="410" as="targetPoint" />
          </mxGeometry>
        </mxCell>
        <mxCell id="m3NEK78cNjrLtAHkQ2Yu-20" style="edgeStyle=orthogonalEdgeStyle;rounded=0;orthogonalLoop=1;jettySize=auto;html=1;curved=1;" edge="1" parent="1" source="m3NEK78cNjrLtAHkQ2Yu-5">
          <mxGeometry relative="1" as="geometry">
            <mxPoint x="248" y="277" as="targetPoint" />
          </mxGeometry>
        </mxCell>
        <mxCell id="m3NEK78cNjrLtAHkQ2Yu-27" style="rounded=0;orthogonalLoop=1;jettySize=auto;html=1;" edge="1" parent="1" source="m3NEK78cNjrLtAHkQ2Yu-5" target="m3NEK78cNjrLtAHkQ2Yu-26">
          <mxGeometry relative="1" as="geometry" />
        </mxCell>
        <mxCell id="m3NEK78cNjrLtAHkQ2Yu-5" value="Recorriendo&lt;div&gt;Trayecto&lt;/div&gt;" style="rounded=1;whiteSpace=wrap;html=1;" vertex="1" parent="1">
          <mxGeometry x="250" y="270" width="120" height="60" as="geometry" />
        </mxCell>
        <mxCell id="m3NEK78cNjrLtAHkQ2Yu-9" value="Se apreta boton&amp;nbsp;&lt;div&gt;&quot;Confirmar&quot;&lt;/div&gt;&lt;div&gt;[Carga colocada]&lt;/div&gt;&lt;div&gt;// Habilitar Motor,&amp;nbsp;&lt;/div&gt;&lt;div&gt;Habilitar Sensor&lt;/div&gt;" style="text;html=1;align=center;verticalAlign=middle;resizable=0;points=[];autosize=1;strokeColor=none;fillColor=none;" vertex="1" parent="1">
          <mxGeometry x="305" y="170" width="120" height="90" as="geometry" />
        </mxCell>
        <mxCell id="m3NEK78cNjrLtAHkQ2Yu-14" style="rounded=0;orthogonalLoop=1;jettySize=auto;html=1;entryX=1;entryY=0.5;entryDx=0;entryDy=0;" edge="1" parent="1" source="m3NEK78cNjrLtAHkQ2Yu-11" target="m3NEK78cNjrLtAHkQ2Yu-5">
          <mxGeometry relative="1" as="geometry">
            <mxPoint x="370" y="455" as="targetPoint" />
          </mxGeometry>
        </mxCell>
        <mxCell id="m3NEK78cNjrLtAHkQ2Yu-11" value="Esperando&lt;div&gt;Orden&lt;/div&gt;" style="rounded=1;whiteSpace=wrap;html=1;" vertex="1" parent="1">
          <mxGeometry x="540" y="290" width="120" height="60" as="geometry" />
        </mxCell>
        <mxCell id="m3NEK78cNjrLtAHkQ2Yu-15" value="Se recibe Orden&lt;div&gt;//Seleccionar Tramo, Continuar Recorrido&lt;/div&gt;" style="text;html=1;align=center;verticalAlign=middle;resizable=0;points=[];autosize=1;strokeColor=none;fillColor=none;" vertex="1" parent="1">
          <mxGeometry x="370" y="250" width="240" height="40" as="geometry" />
        </mxCell>
        <mxCell id="m3NEK78cNjrLtAHkQ2Yu-19" value="&lt;h5&gt;&lt;span style=&quot;font-weight: normal;&quot;&gt;Se llega a inteseccion&lt;br&gt;[Hay Robot de Mayor Prioridad]&lt;br&gt;//Detener Robot&lt;/span&gt;&lt;/h5&gt;" style="text;html=1;align=left;verticalAlign=middle;resizable=0;points=[];autosize=1;strokeColor=none;fillColor=none;" vertex="1" parent="1">
          <mxGeometry x="370" y="320" width="160" height="80" as="geometry" />
        </mxCell>
        <mxCell id="m3NEK78cNjrLtAHkQ2Yu-21" value="&lt;h5&gt;&lt;span style=&quot;font-weight: normal;&quot;&gt;Se llega a inteseccion&lt;br&gt;[No hay Robot]&lt;br&gt;//Seleccionar Tramo, Continuar&lt;/span&gt;&lt;/h5&gt;" style="text;html=1;align=left;verticalAlign=middle;resizable=0;points=[];autosize=1;strokeColor=none;fillColor=none;" vertex="1" parent="1">
          <mxGeometry x="70" y="210" width="160" height="80" as="geometry" />
        </mxCell>
        <mxCell id="m3NEK78cNjrLtAHkQ2Yu-23" style="edgeStyle=orthogonalEdgeStyle;rounded=0;orthogonalLoop=1;jettySize=auto;html=1;curved=1;exitX=-0.006;exitY=0.85;exitDx=0;exitDy=0;exitPerimeter=0;entryX=0.006;entryY=0.576;entryDx=0;entryDy=0;entryPerimeter=0;" edge="1" parent="1" target="m3NEK78cNjrLtAHkQ2Yu-5">
          <mxGeometry relative="1" as="geometry">
            <mxPoint x="250" y="309.02000000000004" as="targetPoint" />
            <mxPoint x="249.28000000000003" y="320" as="sourcePoint" />
            <Array as="points">
              <mxPoint x="220" y="320" />
              <mxPoint x="220" y="304" />
              <mxPoint x="251" y="304" />
            </Array>
          </mxGeometry>
        </mxCell>
        <mxCell id="m3NEK78cNjrLtAHkQ2Yu-24" value="&lt;h5&gt;&lt;span style=&quot;font-weight: normal;&quot;&gt;Se llega a inteseccion&lt;br&gt;[Hay Robot de menor Priori]&lt;br&gt;//Seleccionar Tramo, Continuar&lt;/span&gt;&lt;/h5&gt;" style="text;html=1;align=left;verticalAlign=middle;resizable=0;points=[];autosize=1;strokeColor=none;fillColor=none;" vertex="1" parent="1">
          <mxGeometry x="80" y="270" width="160" height="80" as="geometry" />
        </mxCell>
        <mxCell id="m3NEK78cNjrLtAHkQ2Yu-31" style="rounded=0;orthogonalLoop=1;jettySize=auto;html=1;" edge="1" parent="1">
          <mxGeometry relative="1" as="geometry">
            <mxPoint x="169.99666666666673" y="450" as="sourcePoint" />
            <mxPoint x="256.66333333333324" y="330" as="targetPoint" />
          </mxGeometry>
        </mxCell>
        <mxCell id="m3NEK78cNjrLtAHkQ2Yu-26" value="Detectando&lt;div&gt;Objeto&lt;/div&gt;" style="rounded=1;whiteSpace=wrap;html=1;" vertex="1" parent="1">
          <mxGeometry x="120" y="450" width="120" height="60" as="geometry" />
        </mxCell>
        <mxCell id="m3NEK78cNjrLtAHkQ2Yu-28" value="&lt;h5&gt;&lt;span style=&quot;font-weight: normal;&quot;&gt;Se activa el sensor&lt;br&gt;[Objeto Detectado]&lt;br&gt;//Detener Robot&lt;/span&gt;&lt;/h5&gt;" style="text;html=1;align=center;verticalAlign=middle;resizable=0;points=[];autosize=1;strokeColor=none;fillColor=none;" vertex="1" parent="1">
          <mxGeometry x="220" y="390" width="110" height="80" as="geometry" />
        </mxCell>
        <mxCell id="m3NEK78cNjrLtAHkQ2Yu-32" value="Se Desactiva Sensor&lt;div&gt;[Objeto No detectado]&lt;/div&gt;&lt;div&gt;//Continuar Trayecto&lt;/div&gt;" style="text;html=1;align=center;verticalAlign=middle;resizable=0;points=[];autosize=1;strokeColor=none;fillColor=none;" vertex="1" parent="1">
          <mxGeometry x="70" y="363" width="140" height="60" as="geometry" />
        </mxCell>
        <mxCell id="m3NEK78cNjrLtAHkQ2Yu-33" value="" style="ellipse;shape=doubleEllipse;whiteSpace=wrap;html=1;aspect=fixed;" vertex="1" parent="1">
          <mxGeometry x="363.15999999999997" y="445" width="50" height="50" as="geometry" />
        </mxCell>
        <mxCell id="m3NEK78cNjrLtAHkQ2Yu-34" value="" style="endArrow=none;html=1;rounded=0;exitX=0.623;exitY=1.027;exitDx=0;exitDy=0;exitPerimeter=0;" edge="1" parent="1" source="m3NEK78cNjrLtAHkQ2Yu-5" target="m3NEK78cNjrLtAHkQ2Yu-33">
          <mxGeometry width="50" height="50" relative="1" as="geometry">
            <mxPoint x="325.0028786098289" y="345" as="sourcePoint" />
            <mxPoint x="388.02" y="495" as="targetPoint" />
          </mxGeometry>
        </mxCell>
        <mxCell id="m3NEK78cNjrLtAHkQ2Yu-35" value="&lt;h5 style=&quot;font-size: 7px;&quot;&gt;&lt;span style=&quot;font-weight: normal;&quot;&gt;Se llega a destino&lt;br&gt;//Detener Robot,&lt;br&gt;Enviar Mensaje&lt;br&gt;a Empleado de Retiro&lt;br&gt;de Carga&lt;/span&gt;&lt;/h5&gt;" style="text;html=1;align=center;verticalAlign=middle;resizable=0;points=[];autosize=1;strokeColor=none;fillColor=none;" vertex="1" parent="1">
          <mxGeometry x="260" y="330" width="90" height="80" as="geometry" />
        </mxCell>
      </root>
    </mxGraphModel>
  </diagram>
</mxfile>
